<mxfile host="app.diagrams.net" modified="2023-09-07T22:29:33.004Z" agent="Mozilla/5.0 (Windows NT 10.0; Win64; x64) AppleWebKit/537.36 (KHTML, like Gecko) Chrome/116.0.0.0 Safari/537.36" etag="45oPn55hCtjz_ok8ieqW" version="21.5.0" type="github">
  <diagram name="Page-1" id="iTtlwP_4X3J7MS5wPbKe">
    <mxGraphModel dx="1183" dy="613" grid="1" gridSize="10" guides="1" tooltips="1" connect="1" arrows="1" fold="1" page="1" pageScale="1" pageWidth="850" pageHeight="1100" math="0" shadow="0">
      <root>
        <mxCell id="0" />
        <mxCell id="1" parent="0" />
        <mxCell id="sZXfLMIMeWAwJoiX7Hip-1" value="" style="rounded=1;whiteSpace=wrap;html=1;" parent="1" vertex="1">
          <mxGeometry x="40" y="120" width="120" height="60" as="geometry" />
        </mxCell>
        <mxCell id="sZXfLMIMeWAwJoiX7Hip-2" value="" style="rounded=1;whiteSpace=wrap;html=1;" parent="1" vertex="1">
          <mxGeometry x="200" y="120" width="120" height="60" as="geometry" />
        </mxCell>
        <mxCell id="sZXfLMIMeWAwJoiX7Hip-3" value="" style="rounded=1;whiteSpace=wrap;html=1;" parent="1" vertex="1">
          <mxGeometry x="40" y="250" width="770" height="390" as="geometry" />
        </mxCell>
        <mxCell id="2heQZ_U1DwWw_88zhL2t-1" value="" style="ellipse;whiteSpace=wrap;html=1;aspect=fixed;" vertex="1" parent="1">
          <mxGeometry x="40" y="190" width="200" height="200" as="geometry" />
        </mxCell>
        <mxCell id="2heQZ_U1DwWw_88zhL2t-2" value="" style="rounded=1;whiteSpace=wrap;html=1;" vertex="1" parent="1">
          <mxGeometry x="520" y="120" width="120" height="60" as="geometry" />
        </mxCell>
        <mxCell id="2heQZ_U1DwWw_88zhL2t-3" value="" style="rounded=1;whiteSpace=wrap;html=1;" vertex="1" parent="1">
          <mxGeometry x="360" y="120" width="120" height="60" as="geometry" />
        </mxCell>
        <mxCell id="2heQZ_U1DwWw_88zhL2t-4" value="" style="rounded=1;whiteSpace=wrap;html=1;" vertex="1" parent="1">
          <mxGeometry x="680" y="120" width="120" height="60" as="geometry" />
        </mxCell>
        <mxCell id="2heQZ_U1DwWw_88zhL2t-5" value="" style="ellipse;whiteSpace=wrap;html=1;aspect=fixed;" vertex="1" parent="1">
          <mxGeometry x="610" y="470" width="200" height="200" as="geometry" />
        </mxCell>
        <mxCell id="2heQZ_U1DwWw_88zhL2t-6" value="" style="rounded=1;whiteSpace=wrap;html=1;" vertex="1" parent="1">
          <mxGeometry x="45" y="680" width="120" height="60" as="geometry" />
        </mxCell>
        <mxCell id="2heQZ_U1DwWw_88zhL2t-7" value="" style="rounded=1;whiteSpace=wrap;html=1;" vertex="1" parent="1">
          <mxGeometry x="205" y="680" width="120" height="60" as="geometry" />
        </mxCell>
        <mxCell id="2heQZ_U1DwWw_88zhL2t-8" value="" style="rounded=1;whiteSpace=wrap;html=1;" vertex="1" parent="1">
          <mxGeometry x="525" y="680" width="120" height="60" as="geometry" />
        </mxCell>
        <mxCell id="2heQZ_U1DwWw_88zhL2t-9" value="" style="rounded=1;whiteSpace=wrap;html=1;" vertex="1" parent="1">
          <mxGeometry x="365" y="680" width="120" height="60" as="geometry" />
        </mxCell>
        <mxCell id="2heQZ_U1DwWw_88zhL2t-10" value="" style="rounded=1;whiteSpace=wrap;html=1;" vertex="1" parent="1">
          <mxGeometry x="685" y="680" width="120" height="60" as="geometry" />
        </mxCell>
        <mxCell id="2heQZ_U1DwWw_88zhL2t-11" value="" style="rounded=1;whiteSpace=wrap;html=1;" vertex="1" parent="1">
          <mxGeometry x="90" y="480" width="120" height="140" as="geometry" />
        </mxCell>
        <mxCell id="2heQZ_U1DwWw_88zhL2t-12" value="" style="rounded=1;whiteSpace=wrap;html=1;" vertex="1" parent="1">
          <mxGeometry x="220" y="480" width="120" height="140" as="geometry" />
        </mxCell>
        <mxCell id="2heQZ_U1DwWw_88zhL2t-13" value="" style="rounded=1;whiteSpace=wrap;html=1;" vertex="1" parent="1">
          <mxGeometry x="260" y="260" width="120" height="140" as="geometry" />
        </mxCell>
        <mxCell id="2heQZ_U1DwWw_88zhL2t-14" value="" style="rounded=1;whiteSpace=wrap;html=1;" vertex="1" parent="1">
          <mxGeometry x="350" y="480" width="120" height="140" as="geometry" />
        </mxCell>
        <mxCell id="2heQZ_U1DwWw_88zhL2t-15" value="" style="rounded=1;whiteSpace=wrap;html=1;" vertex="1" parent="1">
          <mxGeometry x="480" y="480" width="120" height="140" as="geometry" />
        </mxCell>
        <mxCell id="2heQZ_U1DwWw_88zhL2t-16" value="" style="rounded=1;whiteSpace=wrap;html=1;" vertex="1" parent="1">
          <mxGeometry x="260" y="260" width="120" height="140" as="geometry" />
        </mxCell>
        <mxCell id="2heQZ_U1DwWw_88zhL2t-17" value="" style="rounded=1;whiteSpace=wrap;html=1;" vertex="1" parent="1">
          <mxGeometry x="390" y="260" width="120" height="140" as="geometry" />
        </mxCell>
        <mxCell id="2heQZ_U1DwWw_88zhL2t-18" value="" style="rounded=1;whiteSpace=wrap;html=1;" vertex="1" parent="1">
          <mxGeometry x="520" y="260" width="120" height="140" as="geometry" />
        </mxCell>
        <mxCell id="2heQZ_U1DwWw_88zhL2t-19" value="" style="rounded=1;whiteSpace=wrap;html=1;" vertex="1" parent="1">
          <mxGeometry x="650" y="260" width="120" height="140" as="geometry" />
        </mxCell>
        <mxCell id="2heQZ_U1DwWw_88zhL2t-36" style="edgeStyle=orthogonalEdgeStyle;rounded=0;orthogonalLoop=1;jettySize=auto;html=1;entryX=-0.018;entryY=0.849;entryDx=0;entryDy=0;entryPerimeter=0;exitX=1;exitY=0.75;exitDx=0;exitDy=0;" edge="1" parent="1" source="2heQZ_U1DwWw_88zhL2t-20" target="2heQZ_U1DwWw_88zhL2t-23">
          <mxGeometry relative="1" as="geometry" />
        </mxCell>
        <mxCell id="2heQZ_U1DwWw_88zhL2t-20" value="" style="rounded=1;whiteSpace=wrap;html=1;" vertex="1" parent="1">
          <mxGeometry y="810" width="500" height="140" as="geometry" />
        </mxCell>
        <mxCell id="2heQZ_U1DwWw_88zhL2t-32" style="edgeStyle=orthogonalEdgeStyle;rounded=0;orthogonalLoop=1;jettySize=auto;html=1;exitX=0.5;exitY=0;exitDx=0;exitDy=0;entryX=0.22;entryY=1;entryDx=0;entryDy=0;entryPerimeter=0;" edge="1" parent="1" source="2heQZ_U1DwWw_88zhL2t-21" target="2heQZ_U1DwWw_88zhL2t-20">
          <mxGeometry relative="1" as="geometry" />
        </mxCell>
        <mxCell id="2heQZ_U1DwWw_88zhL2t-21" value="" style="rounded=1;whiteSpace=wrap;html=1;" vertex="1" parent="1">
          <mxGeometry x="90" y="980" width="120" height="60" as="geometry" />
        </mxCell>
        <mxCell id="2heQZ_U1DwWw_88zhL2t-31" style="edgeStyle=orthogonalEdgeStyle;rounded=0;orthogonalLoop=1;jettySize=auto;html=1;entryX=0.518;entryY=1.014;entryDx=0;entryDy=0;entryPerimeter=0;" edge="1" parent="1" source="2heQZ_U1DwWw_88zhL2t-22" target="2heQZ_U1DwWw_88zhL2t-20">
          <mxGeometry relative="1" as="geometry" />
        </mxCell>
        <mxCell id="2heQZ_U1DwWw_88zhL2t-22" value="" style="rounded=1;whiteSpace=wrap;html=1;" vertex="1" parent="1">
          <mxGeometry x="240" y="980" width="120" height="60" as="geometry" />
        </mxCell>
        <mxCell id="2heQZ_U1DwWw_88zhL2t-33" style="edgeStyle=orthogonalEdgeStyle;rounded=0;orthogonalLoop=1;jettySize=auto;html=1;exitX=0;exitY=0.5;exitDx=0;exitDy=0;" edge="1" parent="1" source="2heQZ_U1DwWw_88zhL2t-23">
          <mxGeometry relative="1" as="geometry">
            <mxPoint x="500" y="850" as="targetPoint" />
            <Array as="points">
              <mxPoint x="500" y="850" />
            </Array>
          </mxGeometry>
        </mxCell>
        <mxCell id="2heQZ_U1DwWw_88zhL2t-23" value="" style="rounded=1;whiteSpace=wrap;html=1;" vertex="1" parent="1">
          <mxGeometry x="680" y="820" width="120" height="60" as="geometry" />
        </mxCell>
        <mxCell id="2heQZ_U1DwWw_88zhL2t-30" style="edgeStyle=orthogonalEdgeStyle;rounded=0;orthogonalLoop=1;jettySize=auto;html=1;exitX=0.5;exitY=0;exitDx=0;exitDy=0;entryX=0.5;entryY=1;entryDx=0;entryDy=0;" edge="1" parent="1" source="2heQZ_U1DwWw_88zhL2t-28" target="2heQZ_U1DwWw_88zhL2t-23">
          <mxGeometry relative="1" as="geometry" />
        </mxCell>
        <mxCell id="2heQZ_U1DwWw_88zhL2t-28" value="" style="rounded=1;whiteSpace=wrap;html=1;" vertex="1" parent="1">
          <mxGeometry x="680" y="960" width="120" height="60" as="geometry" />
        </mxCell>
      </root>
    </mxGraphModel>
  </diagram>
</mxfile>
